# This file uses centimeters as units for non-parametric coordinates.

mtllib buro.mtl
g default
v -0.186891 16.144075 -0.148674
v -0.074624 16.144075 -0.148674
v -0.186891 16.281405 -0.148674
v -0.074624 16.281405 -0.148674
v -0.186891 16.281405 -0.232828
v -0.074624 16.281405 -0.232828
v -0.186891 16.144075 -0.232828
v -0.074624 16.144075 -0.232828
v -0.314291 17.240221 0.058447
v 0.764629 17.240221 0.058447
v -0.314291 17.335361 0.058447
v 0.764629 17.335361 0.058447
v -0.314291 17.335361 -1.020473
v 0.764629 17.335361 -1.020473
v -0.314291 17.240221 -1.020473
v 0.764629 17.240221 -1.020473
v -0.234986 16.280506 -0.122316
v 0.685324 16.280506 -0.122316
v -0.234986 17.252648 -0.122316
v 0.685324 17.252648 -0.122316
v -0.234986 17.252648 -0.839709
v 0.685324 17.252648 -0.839709
v -0.234986 16.280506 -0.839709
v 0.685324 16.280506 -0.839709
v 0.516443 16.144075 -0.740519
v 0.628711 16.144075 -0.740519
v 0.516443 16.281405 -0.740519
v 0.628711 16.281405 -0.740519
v 0.516443 16.281405 -0.824673
v 0.628711 16.281405 -0.824673
v 0.516443 16.144075 -0.824673
v 0.628711 16.144075 -0.824673
v -0.186891 16.144075 -0.740519
v -0.074624 16.144075 -0.740519
v -0.186891 16.281405 -0.740519
v -0.074624 16.281405 -0.740519
v -0.186891 16.281405 -0.824673
v -0.074624 16.281405 -0.824673
v -0.186891 16.144075 -0.824673
v -0.074624 16.144075 -0.824673
v 0.516443 16.144075 -0.148674
v 0.628711 16.144075 -0.148674
v 0.516443 16.281405 -0.148674
v 0.628711 16.281405 -0.148674
v 0.516443 16.281405 -0.232828
v 0.628711 16.281405 -0.232828
v 0.516443 16.144075 -0.232828
v 0.628711 16.144075 -0.232828
vt 1.000000 1.000000
vt 0.000000 1.000000
vt 1.000000 0.000000
vt 0.000000 0.000000
vt 0.625000 0.500000
vt 0.375000 0.500000
vt 0.625000 0.250000
vt 0.375000 0.250000
vt 0.002679 0.002986
vt 0.997321 0.002986
vt 0.002679 0.997014
vt 0.997321 0.997014
vt 0.625000 1.000000
vt 0.375000 1.000000
vt 0.625000 0.750000
vt 0.375000 0.750000
vt 1.000000 1.000000
vt 0.000000 1.000000
vt 1.000000 0.000000
vt 0.000000 0.000000
vt 0.997320 0.997014
vt 0.002679 0.997014
vt 0.997320 0.002986
vt 0.002679 0.002986
vt 1.000000 0.528256
vt 0.000000 0.528256
vt 1.000000 0.471744
vt 0.000000 0.471744
vt 1.000000 1.000000
vt 0.000000 1.000000
vt 1.000000 0.000000
vt 0.000000 0.000000
vt 0.000447 0.457213
vt 1.000385 0.468407
vt -0.000385 0.531593
vt 0.999552 0.542787
vt -0.006279 0.000000
vt 1.006279 0.000000
vt -0.006279 1.000000
vt 1.006279 1.000000
vt 1.000000 0.534808
vt 0.000000 0.534808
vt 1.000000 0.465192
vt 0.000000 0.465192
vt 0.999817 0.614957
vt 0.000183 0.614957
vt 0.999817 0.385043
vt 0.000183 0.385043
vt 0.997835 1.000000
vt -0.002165 1.000000
vt 0.997835 0.000000
vt -0.002165 0.000000
vt 0.625000 0.500000
vt 0.375000 0.500000
vt 0.625000 0.250000
vt 0.375000 0.250000
vt 0.002679 0.008958
vt 0.997321 0.008958
vt 0.002679 0.991042
vt 0.997321 0.991042
vt 0.625000 1.000000
vt 0.375000 1.000000
vt 0.625000 0.750000
vt 0.375000 0.750000
vt 1.000000 1.000000
vt 0.000000 1.000000
vt 1.000000 0.000000
vt 0.000000 0.000000
vt 0.997321 1.000000
vt 0.002679 1.000000
vt 0.997321 0.000000
vt 0.002679 0.000000
vt 1.000000 1.000000
vt 0.000000 1.000000
vt 1.000000 0.000000
vt 0.000000 0.000000
vt 0.625000 0.500000
vt 0.375000 0.500000
vt 0.625000 0.250000
vt 0.375000 0.250000
vt 0.005665 -0.002986
vt 0.994335 -0.002986
vt 0.005665 1.002986
vt 0.994335 1.002986
vt 0.625000 1.000000
vt 0.375000 1.000000
vt 0.625000 0.750000
vt 0.375000 0.750000
vt 1.000000 1.000000
vt 0.000000 1.000000
vt 1.000000 0.000000
vt 0.000000 0.000000
vt 0.125000 0.250000
vt 0.375000 0.000000
vt 0.125000 0.000000
vt 1.000000 1.000000
vt 0.000000 1.000000
vt 1.000000 0.000000
vt 0.000000 0.000000
vt 0.625000 0.500000
vt 0.375000 0.500000
vt 0.625000 0.250000
vt 0.375000 0.250000
vt 0.002679 0.000000
vt 0.997321 0.000000
vt 0.002679 1.000000
vt 0.997321 1.000000
vt 0.625000 1.000000
vt 0.375000 1.000000
vt 0.625000 0.750000
vt 0.375000 0.750000
vt 1.000000 1.000000
vt 0.000000 1.000000
vt 1.000000 0.000000
vt 0.000000 0.000000
vt 0.125000 0.250000
vt 0.375000 0.000000
vt 0.125000 0.000000
vt 1.000000 1.000000
vt 0.000000 1.000000
vt 1.000000 0.000000
vt 0.000000 0.000000
vt 0.625000 0.500000
vt 0.375000 0.500000
vt 0.625000 0.250000
vt 0.375000 0.250000
vt -0.009265 0.002986
vt 1.009265 0.002986
vt -0.009265 0.997014
vt 1.009265 0.997014
vt 0.625000 1.000000
vt 0.375000 1.000000
vt 0.625000 0.750000
vt 0.375000 0.750000
vt 1.000000 1.000000
vt 0.000000 1.000000
vt 1.000000 0.000000
vt 0.000000 0.000000
vt 0.125000 0.250000
vt 0.375000 0.000000
vt 0.125000 0.000000
vn 0.000000 0.000000 1.000000
vn 0.000000 0.000000 1.000000
vn 0.000000 0.000000 1.000000
vn 0.000000 0.000000 1.000000
vn 0.000000 0.000000 1.000000
vn 0.000000 0.000000 1.000000
vn 0.000000 1.000000 0.000000
vn 0.000000 1.000000 0.000000
vn 0.000000 1.000000 0.000000
vn 0.000000 1.000000 0.000000
vn 0.000000 1.000000 0.000000
vn 0.000000 1.000000 0.000000
vn 0.000000 0.000000 -1.000000
vn 0.000000 0.000000 -1.000000
vn 0.000000 0.000000 -1.000000
vn 0.000000 0.000000 -1.000000
vn 0.000000 0.000000 -1.000000
vn 0.000000 0.000000 -1.000000
vn 0.000000 -1.000000 0.000000
vn 0.000000 -1.000000 0.000000
vn 0.000000 -1.000000 0.000000
vn 0.000000 -1.000000 0.000000
vn 0.000000 -1.000000 0.000000
vn 0.000000 -1.000000 0.000000
vn 1.000000 0.000000 0.000000
vn 1.000000 0.000000 0.000000
vn 1.000000 0.000000 0.000000
vn 1.000000 0.000000 0.000000
vn 1.000000 0.000000 0.000000
vn 1.000000 0.000000 0.000000
vn -1.000000 0.000000 0.000000
vn -1.000000 0.000000 0.000000
vn -1.000000 0.000000 0.000000
vn -1.000000 0.000000 0.000000
vn -1.000000 0.000000 0.000000
vn -1.000000 0.000000 0.000000
vn 0.000000 0.000000 1.000000
vn 0.000000 0.000000 1.000000
vn 0.000000 0.000000 1.000000
vn 0.000000 0.000000 1.000000
vn 0.000000 0.000000 1.000000
vn 0.000000 0.000000 1.000000
vn 0.000000 1.000000 0.000000
vn 0.000000 1.000000 0.000000
vn 0.000000 1.000000 0.000000
vn 0.000000 1.000000 0.000000
vn 0.000000 1.000000 0.000000
vn 0.000000 1.000000 0.000000
vn 0.000000 0.000000 -1.000000
vn 0.000000 0.000000 -1.000000
vn 0.000000 0.000000 -1.000000
vn 0.000000 0.000000 -1.000000
vn 0.000000 0.000000 -1.000000
vn 0.000000 0.000000 -1.000000
vn 0.000000 -1.000000 0.000000
vn 0.000000 -1.000000 0.000000
vn 0.000000 -1.000000 0.000000
vn 0.000000 -1.000000 0.000000
vn 0.000000 -1.000000 0.000000
vn 0.000000 -1.000000 0.000000
vn 1.000000 0.000000 0.000000
vn 1.000000 0.000000 0.000000
vn 1.000000 0.000000 0.000000
vn 1.000000 0.000000 0.000000
vn 1.000000 0.000000 0.000000
vn 1.000000 0.000000 0.000000
vn -1.000000 0.000000 0.000000
vn -1.000000 0.000000 0.000000
vn -1.000000 0.000000 0.000000
vn -1.000000 0.000000 0.000000
vn -1.000000 0.000000 0.000000
vn -1.000000 0.000000 0.000000
vn 0.000000 0.000000 1.000000
vn 0.000000 0.000000 1.000000
vn 0.000000 0.000000 1.000000
vn 0.000000 0.000000 1.000000
vn 0.000000 0.000000 1.000000
vn 0.000000 0.000000 1.000000
vn 0.000000 1.000000 0.000000
vn 0.000000 1.000000 0.000000
vn 0.000000 1.000000 0.000000
vn 0.000000 1.000000 0.000000
vn 0.000000 1.000000 0.000000
vn 0.000000 1.000000 0.000000
vn 0.000000 0.000000 -1.000000
vn 0.000000 0.000000 -1.000000
vn 0.000000 0.000000 -1.000000
vn 0.000000 0.000000 -1.000000
vn 0.000000 0.000000 -1.000000
vn 0.000000 0.000000 -1.000000
vn 0.000000 -1.000000 0.000000
vn 0.000000 -1.000000 0.000000
vn 0.000000 -1.000000 0.000000
vn 0.000000 -1.000000 0.000000
vn 0.000000 -1.000000 0.000000
vn 0.000000 -1.000000 0.000000
vn 1.000000 0.000000 0.000000
vn 1.000000 0.000000 0.000000
vn 1.000000 0.000000 0.000000
vn 1.000000 0.000000 0.000000
vn 1.000000 0.000000 0.000000
vn 1.000000 0.000000 0.000000
vn -1.000000 0.000000 0.000000
vn -1.000000 0.000000 0.000000
vn -1.000000 0.000000 0.000000
vn -1.000000 0.000000 0.000000
vn -1.000000 0.000000 0.000000
vn -1.000000 0.000000 0.000000
vn 0.000000 0.000000 1.000000
vn 0.000000 0.000000 1.000000
vn 0.000000 0.000000 1.000000
vn 0.000000 0.000000 1.000000
vn 0.000000 0.000000 1.000000
vn 0.000000 0.000000 1.000000
vn 0.000000 1.000000 0.000000
vn 0.000000 1.000000 0.000000
vn 0.000000 1.000000 0.000000
vn 0.000000 1.000000 0.000000
vn 0.000000 1.000000 0.000000
vn 0.000000 1.000000 0.000000
vn 0.000000 0.000000 -1.000000
vn 0.000000 0.000000 -1.000000
vn 0.000000 0.000000 -1.000000
vn 0.000000 0.000000 -1.000000
vn 0.000000 0.000000 -1.000000
vn 0.000000 0.000000 -1.000000
vn 0.000000 -1.000000 0.000000
vn 0.000000 -1.000000 0.000000
vn 0.000000 -1.000000 0.000000
vn 0.000000 -1.000000 0.000000
vn 0.000000 -1.000000 0.000000
vn 0.000000 -1.000000 0.000000
vn 1.000000 0.000000 0.000000
vn 1.000000 0.000000 0.000000
vn 1.000000 0.000000 0.000000
vn 1.000000 0.000000 0.000000
vn 1.000000 0.000000 0.000000
vn 1.000000 0.000000 0.000000
vn -1.000000 0.000000 0.000000
vn -1.000000 0.000000 0.000000
vn -1.000000 0.000000 0.000000
vn -1.000000 0.000000 0.000000
vn -1.000000 0.000000 0.000000
vn -1.000000 0.000000 0.000000
vn 0.000000 0.000000 1.000000
vn 0.000000 0.000000 1.000000
vn 0.000000 0.000000 1.000000
vn 0.000000 0.000000 1.000000
vn 0.000000 0.000000 1.000000
vn 0.000000 0.000000 1.000000
vn 0.000000 1.000000 0.000000
vn 0.000000 1.000000 0.000000
vn 0.000000 1.000000 0.000000
vn 0.000000 1.000000 0.000000
vn 0.000000 1.000000 0.000000
vn 0.000000 1.000000 0.000000
vn 0.000000 0.000000 -1.000000
vn 0.000000 0.000000 -1.000000
vn 0.000000 0.000000 -1.000000
vn 0.000000 0.000000 -1.000000
vn 0.000000 0.000000 -1.000000
vn 0.000000 0.000000 -1.000000
vn 0.000000 -1.000000 0.000000
vn 0.000000 -1.000000 0.000000
vn 0.000000 -1.000000 0.000000
vn 0.000000 -1.000000 0.000000
vn 0.000000 -1.000000 0.000000
vn 0.000000 -1.000000 0.000000
vn 1.000000 0.000000 0.000000
vn 1.000000 0.000000 0.000000
vn 1.000000 0.000000 0.000000
vn 1.000000 0.000000 0.000000
vn 1.000000 0.000000 0.000000
vn 1.000000 0.000000 0.000000
vn -1.000000 0.000000 0.000000
vn -1.000000 0.000000 0.000000
vn -1.000000 0.000000 0.000000
vn -1.000000 0.000000 0.000000
vn -1.000000 0.000000 0.000000
vn -1.000000 0.000000 0.000000
vn 0.000000 0.000000 1.000000
vn 0.000000 0.000000 1.000000
vn 0.000000 0.000000 1.000000
vn 0.000000 0.000000 1.000000
vn 0.000000 0.000000 1.000000
vn 0.000000 0.000000 1.000000
vn 0.000000 1.000000 0.000000
vn 0.000000 1.000000 0.000000
vn 0.000000 1.000000 0.000000
vn 0.000000 1.000000 0.000000
vn 0.000000 1.000000 0.000000
vn 0.000000 1.000000 0.000000
vn 0.000000 0.000000 -1.000000
vn 0.000000 0.000000 -1.000000
vn 0.000000 0.000000 -1.000000
vn 0.000000 0.000000 -1.000000
vn 0.000000 0.000000 -1.000000
vn 0.000000 0.000000 -1.000000
vn 0.000000 -1.000000 0.000000
vn 0.000000 -1.000000 0.000000
vn 0.000000 -1.000000 0.000000
vn 0.000000 -1.000000 0.000000
vn 0.000000 -1.000000 0.000000
vn 0.000000 -1.000000 0.000000
vn 1.000000 0.000000 0.000000
vn 1.000000 0.000000 0.000000
vn 1.000000 0.000000 0.000000
vn 1.000000 0.000000 0.000000
vn 1.000000 0.000000 0.000000
vn 1.000000 0.000000 0.000000
vn -1.000000 0.000000 0.000000
vn -1.000000 0.000000 0.000000
vn -1.000000 0.000000 0.000000
vn -1.000000 0.000000 0.000000
vn -1.000000 0.000000 0.000000
vn -1.000000 0.000000 0.000000
s off
g buro:polySurface14
usemtl buro:lambert4SG
f 4/1/1 3/2/2 2/3/3
f 2/3/4 3/2/5 1/4/6
f 6/5/7 5/6/8 4/7/9
f 4/7/10 5/6/11 3/8/12
f 8/9/13 7/10/14 6/11/15
f 6/11/16 7/10/17 5/12/18
f 2/13/19 1/14/20 8/15/21
f 8/15/22 1/14/23 7/16/24
f 6/17/25 4/18/26 8/19/27
f 8/19/28 4/18/29 2/20/30
f 3/21/31 5/22/32 1/23/33
f 1/23/34 5/22/35 7/24/36
f 12/25/37 11/26/38 10/27/39
f 10/27/40 11/26/41 9/28/42
f 14/29/43 13/30/44 12/31/45
f 12/31/46 13/30/47 11/32/48
f 16/33/49 15/34/50 14/35/51
f 14/35/52 15/34/53 13/36/54
f 10/37/55 9/38/56 16/39/57
f 16/39/58 9/38/59 15/40/60
f 14/41/61 12/42/62 16/43/63
f 16/43/64 12/42/65 10/44/66
f 11/45/67 13/46/68 9/47/69
f 9/47/70 13/46/71 15/48/72
usemtl buro:lambert5SG
f 20/49/73 19/50/74 18/51/75
f 18/51/76 19/50/77 17/52/78
usemtl buro:lambert4SG
f 22/53/79 21/54/80 20/55/81
f 20/55/82 21/54/83 19/56/84
f 24/57/85 23/58/86 22/59/87
f 22/59/88 23/58/89 21/60/90
f 18/61/91 17/62/92 24/63/93
f 24/63/94 17/62/95 23/64/96
f 22/65/97 20/66/98 24/67/99
f 24/67/100 20/66/101 18/68/102
f 19/69/103 21/70/104 17/71/105
f 17/71/106 21/70/107 23/72/108
f 28/73/109 27/74/110 26/75/111
f 26/75/112 27/74/113 25/76/114
f 30/77/115 29/78/116 28/79/117
f 28/79/118 29/78/119 27/80/120
f 32/81/121 31/82/122 30/83/123
f 30/83/124 31/82/125 29/84/126
f 26/85/127 25/86/128 32/87/129
f 32/87/130 25/86/131 31/88/132
f 30/89/133 28/90/134 32/91/135
f 32/91/136 28/90/137 26/92/138
f 27/80/139 29/93/140 25/94/141
f 25/94/142 29/93/143 31/95/144
f 36/96/145 35/97/146 34/98/147
f 34/98/148 35/97/149 33/99/150
f 38/100/151 37/101/152 36/102/153
f 36/102/154 37/101/155 35/103/156
f 40/104/157 39/105/158 38/106/159
f 38/106/160 39/105/161 37/107/162
f 34/108/163 33/109/164 40/110/165
f 40/110/166 33/109/167 39/111/168
f 38/112/169 36/113/170 40/114/171
f 40/114/172 36/113/173 34/115/174
f 35/103/175 37/116/176 33/117/177
f 33/117/178 37/116/179 39/118/180
f 44/119/181 43/120/182 42/121/183
f 42/121/184 43/120/185 41/122/186
f 46/123/187 45/124/188 44/125/189
f 44/125/190 45/124/191 43/126/192
f 48/127/193 47/128/194 46/129/195
f 46/129/196 47/128/197 45/130/198
f 42/131/199 41/132/200 48/133/201
f 48/133/202 41/132/203 47/134/204
f 46/135/205 44/136/206 48/137/207
f 48/137/208 44/136/209 42/138/210
f 43/126/211 45/139/212 41/140/213
f 41/140/214 45/139/215 47/141/216
