# This file uses centimeters as units for non-parametric coordinates.

mtllib desk.mtl
g default
v 14.134016 16.170117 1.815696
v 14.134016 16.170117 3.258533
v 14.134016 17.612954 1.815696
v 14.134016 17.612954 3.258533
v 15.576854 17.612954 1.815696
v 15.576854 17.612954 3.258533
v 15.576854 16.170117 1.815696
v 15.576854 16.170117 3.258533
v 14.015021 17.603493 -0.025292
v 14.015021 17.603493 3.433532
v 14.015021 17.708605 -0.025292
v 14.015021 17.708605 3.433532
v 15.695848 17.708605 -0.025292
v 15.695848 17.708605 3.433532
v 15.695848 17.603493 -0.025292
v 15.695848 17.603493 3.433532
v 14.134016 16.193995 0.127771
v 14.134016 16.193995 0.258226
v 14.134016 17.636832 0.127771
v 14.134016 17.636832 0.258226
v 15.576854 17.636832 0.127771
v 15.576854 17.636832 0.258226
v 15.576854 16.193995 0.127771
v 15.576854 16.193995 0.258226
vt 0.000000 1.000000
vt 0.000000 0.000000
vt 1.000000 1.000000
vt 1.000000 0.000000
vt 0.375000 0.500000
vt 0.375000 0.250000
vt 0.625000 0.500000
vt 0.625000 0.250000
vt 0.000000 1.010357
vt 0.000000 -0.010357
vt 1.000000 1.010357
vt 1.000000 -0.010357
vt 0.000000 1.010357
vt 0.000000 -0.010357
vt 1.000000 1.010357
vt 1.000000 -0.010357
vt 0.000000 1.000000
vt 0.000000 0.000000
vt 1.000000 1.000000
vt 1.000000 0.000000
vt 1.000000 -0.013148
vt 1.000000 1.013148
vt 0.000000 -0.013148
vt 0.000000 1.013148
vt 0.996401 0.972021
vt -0.001722 0.972021
vt 0.996401 0.940296
vt -0.001722 0.940296
vt 1.000000 1.000000
vt 0.000000 1.000000
vt 1.000000 0.000000
vt 0.000000 0.000000
vt 1.000000 0.514104
vt 0.000000 0.514104
vt 1.000000 0.483342
vt 0.000000 0.483342
vt 1.000000 1.029992
vt 0.000000 1.029992
vt 1.000000 0.009279
vt 0.000000 0.009279
vt 1.000000 0.515152
vt -0.000000 0.515152
vt 1.000000 0.484848
vt -0.000000 0.484848
vt 0.000000 0.496357
vt 1.000000 0.496357
vt 0.000000 0.526950
vt 1.000000 0.526950
vt 0.478296 1.000000
vt 0.478296 0.000000
vt 0.521704 1.000000
vt 0.521704 0.000000
vt 0.375000 0.500000
vt 0.375000 0.250000
vt 0.625000 0.500000
vt 0.625000 0.250000
vt 0.484848 1.007565
vt 0.484848 -0.007566
vt 0.515152 1.007565
vt 0.515152 -0.007566
vt 0.000000 1.018730
vt 0.000000 -0.018730
vt 1.000000 1.018730
vt 1.000000 -0.018730
vt 0.000000 1.000000
vt 0.000000 0.000000
vt 1.000000 1.000000
vt 1.000000 0.000000
vt 1.000000 0.000808
vt 1.000000 0.999192
vt 0.000000 0.000808
vt 0.000000 0.999192
vn -1.000000 0.000000 -0.000000
vn -1.000000 0.000000 -0.000000
vn -1.000000 0.000000 -0.000000
vn -1.000000 0.000000 -0.000000
vn -1.000000 0.000000 -0.000000
vn -1.000000 0.000000 -0.000000
vn 0.000000 1.000000 0.000000
vn 0.000000 1.000000 0.000000
vn 0.000000 1.000000 0.000000
vn 0.000000 1.000000 0.000000
vn 0.000000 1.000000 0.000000
vn 0.000000 1.000000 0.000000
vn 1.000000 0.000000 0.000000
vn 1.000000 0.000000 0.000000
vn 1.000000 0.000000 0.000000
vn 1.000000 0.000000 0.000000
vn 1.000000 0.000000 0.000000
vn 1.000000 0.000000 0.000000
vn 0.000000 -1.000000 0.000000
vn 0.000000 -1.000000 0.000000
vn 0.000000 -1.000000 0.000000
vn 0.000000 -1.000000 0.000000
vn 0.000000 -1.000000 0.000000
vn 0.000000 -1.000000 0.000000
vn 0.000000 0.000000 1.000000
vn 0.000000 0.000000 1.000000
vn 0.000000 0.000000 1.000000
vn 0.000000 0.000000 1.000000
vn 0.000000 0.000000 1.000000
vn 0.000000 0.000000 1.000000
vn 0.000000 0.000000 -1.000000
vn 0.000000 0.000000 -1.000000
vn 0.000000 0.000000 -1.000000
vn 0.000000 0.000000 -1.000000
vn 0.000000 0.000000 -1.000000
vn 0.000000 0.000000 -1.000000
vn -1.000000 0.000000 -0.000000
vn -1.000000 0.000000 -0.000000
vn -1.000000 0.000000 -0.000000
vn -1.000000 0.000000 -0.000000
vn -1.000000 0.000000 -0.000000
vn -1.000000 0.000000 -0.000000
vn 0.000000 1.000000 0.000000
vn 0.000000 1.000000 0.000000
vn 0.000000 1.000000 0.000000
vn 0.000000 1.000000 0.000000
vn 0.000000 1.000000 0.000000
vn 0.000000 1.000000 0.000000
vn 1.000000 0.000000 0.000000
vn 1.000000 0.000000 0.000000
vn 1.000000 0.000000 0.000000
vn 1.000000 0.000000 0.000000
vn 1.000000 0.000000 0.000000
vn 1.000000 0.000000 0.000000
vn 0.000000 -1.000000 0.000000
vn 0.000000 -1.000000 0.000000
vn 0.000000 -1.000000 0.000000
vn 0.000000 -1.000000 0.000000
vn 0.000000 -1.000000 0.000000
vn 0.000000 -1.000000 0.000000
vn 0.000000 0.000000 1.000000
vn 0.000000 0.000000 1.000000
vn 0.000000 0.000000 1.000000
vn 0.000000 0.000000 1.000000
vn 0.000000 0.000000 1.000000
vn 0.000000 0.000000 1.000000
vn 0.000000 0.000000 -1.000000
vn 0.000000 0.000000 -1.000000
vn 0.000000 0.000000 -1.000000
vn 0.000000 0.000000 -1.000000
vn 0.000000 0.000000 -1.000000
vn 0.000000 0.000000 -1.000000
vn -1.000000 0.000000 -0.000000
vn -1.000000 0.000000 -0.000000
vn -1.000000 0.000000 -0.000000
vn -1.000000 0.000000 -0.000000
vn -1.000000 0.000000 -0.000000
vn -1.000000 0.000000 -0.000000
vn 0.000000 1.000000 0.000000
vn 0.000000 1.000000 0.000000
vn 0.000000 1.000000 0.000000
vn 0.000000 1.000000 0.000000
vn 0.000000 1.000000 0.000000
vn 0.000000 1.000000 0.000000
vn 1.000000 0.000000 0.000000
vn 1.000000 0.000000 0.000000
vn 1.000000 0.000000 0.000000
vn 1.000000 0.000000 0.000000
vn 1.000000 0.000000 0.000000
vn 1.000000 0.000000 0.000000
vn 0.000000 -1.000000 0.000000
vn 0.000000 -1.000000 0.000000
vn 0.000000 -1.000000 0.000000
vn 0.000000 -1.000000 0.000000
vn 0.000000 -1.000000 0.000000
vn 0.000000 -1.000000 0.000000
vn 0.000000 0.000000 1.000000
vn 0.000000 0.000000 1.000000
vn 0.000000 0.000000 1.000000
vn 0.000000 0.000000 1.000000
vn 0.000000 0.000000 1.000000
vn 0.000000 0.000000 1.000000
vn 0.000000 0.000000 -1.000000
vn 0.000000 0.000000 -1.000000
vn 0.000000 0.000000 -1.000000
vn 0.000000 0.000000 -1.000000
vn 0.000000 0.000000 -1.000000
vn 0.000000 0.000000 -1.000000
s off
g desk:polySurface18
usemtl desk:lambert3SG
f 3/1/1 1/2/2 4/3/3
f 4/3/4 1/2/5 2/4/6
usemtl desk:lambert7SG
f 5/5/7 3/6/8 6/7/9
f 6/7/10 3/6/11 4/8/12
f 7/9/13 5/10/14 8/11/15
f 8/11/16 5/10/17 6/12/18
f 1/13/19 7/14/20 2/15/21
f 2/15/22 7/14/23 8/16/24
f 4/17/25 2/18/26 6/19/27
f 6/19/28 2/18/29 8/20/30
f 5/21/31 7/22/32 3/23/33
f 3/23/34 7/22/35 1/24/36
f 12/25/37 11/26/38 10/27/39
f 10/27/40 11/26/41 9/28/42
f 14/29/43 13/30/44 12/31/45
f 12/31/46 13/30/47 11/32/48
f 16/33/49 15/34/50 14/35/51
f 14/35/52 15/34/53 13/36/54
f 10/37/55 9/38/56 16/39/57
f 16/39/58 9/38/59 15/40/60
f 14/41/61 12/42/62 16/43/63
f 16/43/64 12/42/65 10/44/66
f 11/45/67 13/46/68 9/47/69
f 9/47/70 13/46/71 15/48/72
f 19/49/73 17/50/74 20/51/75
f 20/51/76 17/50/77 18/52/78
f 21/53/79 19/54/80 22/55/81
f 22/55/82 19/54/83 20/56/84
f 23/57/85 21/58/86 24/59/87
f 24/59/88 21/58/89 22/60/90
f 17/61/91 23/62/92 18/63/93
f 18/63/94 23/62/95 24/64/96
f 20/65/97 18/66/98 22/67/99
f 22/67/100 18/66/101 24/68/102
f 21/69/103 23/70/104 19/71/105
f 19/71/106 23/70/107 17/72/108
